<?xml version="1.0" encoding="utf-8"?>
<!-- Generator: Adobe Illustrator 22.0.0, SVG Export Plug-In . SVG Version: 6.00 Build 0)  -->
<svg xmlns="http://www.w3.org/2000/svg" xmlns:xlink="http://www.w3.org/1999/xlink" x="0px" y="0px" width='680' height='240' viewBox="0 0 680 240" style="enable-background:new 0 0 680 240;" xml:space="preserve">
  <defs>
    <filter id="border-box-filterId" height="150%" width="150%" x="-25%" y="-25%">
      <feMorphology operator="dilate" radius="2" in="SourceAlpha" result="thicken"></feMorphology> 
      <feGaussianBlur in="thicken" stdDeviation="3" result="blurred"></feGaussianBlur>
      <feFlood result="glowColor" flood-color="#1f33a2"></feFlood> 
      <feComposite in="glowColor" in2="blurred" operator="in" result="softGlowColored"></feComposite> 
      <feMerge>
        <feMergeNode in="softGlowColored"></feMergeNode> 
        <feMergeNode in="SourceGraphic"></feMergeNode>
      </feMerge>
    </filter>
  </defs> 
  <polyline filter="url(#border-box-filterId)" points="
    215, 30 20, 30 7, 50 7, 86.5 13, 91.5 13, 171.5 7, 176.5 7, 213 20, 233 660, 233 673, 213
    673, 176.5 667, 171.5 667, 91.5 673, 86.5 673, 50 660, 30 465, 30 445, 7 235, 7 215, 30 235, 52 445, 52 465, 30" 
    stroke="#8aaafb" fill="transparent">
  </polyline>
  <polygon fill="transparent" points="460, 30 444, 11 438, 11 457, 34" stroke="#8aaafb"></polygon> 
  <polygon fill="transparent" points="220, 30 237, 49 243, 49 223, 26" stroke="#8aaafb"></polygon> 
  <polygon fill="transparent" filter="url(#border-box-filterId)" 
    points="454, 37 433, 11 238, 11 226, 23 248, 49 443, 49" stroke="#8aaafb">
  </polygon> 
  <polygon filter="url(#border-box-filterId)"  points="205, 37 184, 37 190, 46 211, 46" fill="#8aaafb"></polygon> 
  <polygon filter="url(#border-box-filterId)"  points="175, 37 154, 37 160, 46 181, 46" fill="#8aaafb"></polygon> 
  <polygon filter="url(#border-box-filterId)"  points="145, 37 124, 37 130, 46 151, 46" fill="#8aaafb"></polygon> 
  <polygon filter="url(#border-box-filterId)"  points="495, 37 474, 37 468, 46 489, 46" fill="#8aaafb"></polygon> 
  <polygon filter="url(#border-box-filterId)"  points="525, 37 504, 37 498, 46 519, 46" fill="#8aaafb"></polygon> 
  <polygon filter="url(#border-box-filterId)"  points="555, 37 534, 37 528, 46 549, 46" fill="#8aaafb"></polygon>
  <polygon filter="url(#border-box-filterId)"  points="7, 89.5 11, 93.5 11, 169.5 7, 173.5" fill="#8aaafb"></polygon> 
  <polygon filter="url(#border-box-filterId)"  points="673, 89.5 669, 93.5 669, 169.5 673, 173.5" fill="#8aaafb"></polygon>
</svg>